<svg width="148" height="24" viewBox="0 0 148 24" fill="none" xmlns="http://www.w3.org/2000/svg">
<path fill-rule="evenodd" clip-rule="evenodd" d="M6.14937 0H7.23616C8.01712 0 10.6822 0.728703 10.6822 0.728703H11.1464C11.3212 0.728703 11.6106 0.593758 11.7199 0.501995C11.7963 0.528984 11.8564 0.545177 11.9492 0.615349L7.41092 3.75687C7.40546 3.75687 6.02923 4.4208 6.02923 5.04694V12.9547L1.551 15.9829C1.61653 15.5618 2.1845 15.1786 2.1845 14.5794V6.78503C2.1845 6.18048 6.49343 3.98897 6.49343 3.36283C6.49343 2.74748 3.96487 2.24548 3.96487 2.24548C3.16207 2.2131 2.82893 2.2131 2.00974 2.24548C1.2124 2.27247 0.311292 2.76367 0 2.74748C0.977565 2.11594 3.60443 0 6.14937 0ZM15.3352 0.167332C16.0288 0.167332 16.4438 0.890637 17.6344 2.41282C17.9293 2.78526 19.3001 4.42619 19.3001 5.21427V5.83502C19.3001 7.43277 14.9911 9.03591 14.9911 9.69984C14.9911 10.1587 17.2576 9.94274 18.2679 10.6013C19.2345 11.2274 19.6441 12.5553 19.6441 13.2894V15.2002C19.6441 16.3391 18.044 16.771 16.0834 18.2284C15.2205 18.8653 12.2824 20.8085 12.0639 20.8085C12.0639 20.8085 8.68886 19.011 7.06686 19.011H4.88236C3.96487 19.011 1.72576 19.7991 1.551 19.7991C1.551 19.7991 4.94244 16.5442 8.38849 16.5442H10.6822C11.1573 16.5442 12.7848 17.1974 13.2108 17.3323V3.08214C13.2108 2.9472 13.0306 2.6935 12.752 2.6935C12.1131 2.6935 11.6598 3.82704 11.6598 3.87022V12.3394C11.6598 12.7172 10.1689 13.8453 9.36059 14.2988C8.16458 14.9789 7.38908 15.632 6.66273 15.9829V15.8155C6.66273 15.8155 7.29624 15.1408 7.29624 14.7522V5.55433C7.29624 5.44098 8.30657 4.20488 11.0863 2.63412C12.7029 1.72729 14.3467 0.167332 15.3352 0.167332ZM14.019 4.03755C14.019 4.03755 15.854 5.99695 15.854 7.17907C15.854 8.0751 15.1495 8.42596 14.019 9.08449V4.03755ZM14.019 10.6553C14.1938 10.6984 15.2205 11.303 15.2205 11.724V18.169C14.9365 18.2985 15.1659 18.169 14.9911 18.169C14.6307 18.169 14.019 17.8937 14.019 17.5536V10.6553ZM57.9002 8.24244L61.9798 10.2072V18.8437L58.1296 20.6952L53.9954 18.9571V9.92655L57.9002 8.24244ZM39.0589 7.98874L41.5274 10.3962V17.8019L42.6742 18.9247L40.7792 20.7167L38.7694 18.8653V11.9669C38.7367 11.9453 37.5134 10.7578 37.2785 10.6768L35.8968 11.9129V17.8559L36.9345 18.8653L34.9793 20.7167L33.199 19.038V11.5783C33.199 11.5783 32.3525 10.8874 31.992 10.4555L34.4059 8.04272L36.7597 10.2288L39.0589 7.98874ZM48.5342 8.30181L53.0179 10.1533C52.8103 10.4016 51.445 11.3786 50.948 11.4973C50.948 11.4973 47.289 10.0993 47.2125 10.0939V17.3863L50.2927 18.8815C50.2927 18.8815 52.0676 18.2823 52.499 18.2823C52.5482 18.2823 52.6247 18.2985 52.7284 18.2823V18.4497L49.2277 20.6952H48.7635L44.3399 18.7304V10.2612L48.5342 8.30181ZM25.9027 8.09669C28.6934 9.46234 29.9222 9.62967 29.9222 10.2288V17.4079L31.7026 19.146L30.0369 20.7167C28.819 19.7451 28.3712 19.3187 28.3712 19.3187L25.3129 20.8139L21.1351 18.9463V14.2124L25.2146 12.2476L27.4537 13.149V11.1842L23.8766 9.96973L22.0799 10.1802L21.9979 9.89416L25.9027 8.09669ZM56.666 9.92655L59.3365 11.1626V18.8437L56.6332 17.667L56.666 9.92655ZM23.6636 13.8777L27.4537 15.7292V19.2054L23.6636 17.4835V13.8777ZM75.9988 3.03356C76.1736 3.03356 76.9272 3.31965 78.1833 3.9296C78.8605 4.25886 80.0784 4.51256 80.0784 5.10632V19.0164L76.2883 20.7545L72.094 18.7951V9.98592L76.1135 8.24783C76.2555 8.26403 77.5498 8.75523 77.5498 8.75523V5.94837L74.1966 4.55034C73.6505 4.58273 73.0061 5.09552 72.3507 5.20887L72.4927 4.6583C72.4927 4.6583 75.5182 3.03356 75.9988 3.03356ZM86.6264 8.19386L90.3619 12.2314L84.9007 16.1556V17.2244C84.9007 17.4457 88.1173 18.8815 88.1173 18.8815C88.1173 18.8815 89.712 17.8181 90.4165 18.2338C90.3783 18.2823 86.5664 20.7006 86.5664 20.7006L82.4923 18.9625V10.0993L86.6264 8.19386ZM74.7373 9.93195L77.4897 11.1626V18.8491H77.4351L74.7373 17.6724V9.93195ZM84.9607 10.0993L87.6968 12.9007L84.9607 14.8655V10.0993ZM136.777 17.9099L137.809 18.8599L135.739 20.7653L133.79 18.8599V5.95917L136.777 3.10373V17.9099ZM120.863 2.74208V10.8712L123.85 8.01033L126.089 10.2018V20.517L123.277 23.2105H123.217V11.5999L122.125 10.5905L120.863 11.6592V17.7695L121.955 18.7789V18.8383L119.946 20.7977L117.99 18.8923V5.54354L120.863 2.79606V2.74208ZM129.421 2.74208H129.481L131.431 4.6475V4.70148L129.421 6.66628L127.411 4.70148L129.421 2.74208ZM143.555 8.318C143.664 8.318 147.29 12.1936 147.345 12.3556L141.889 16.1124V17.6292L144.98 18.9948C144.98 18.9948 146.602 18.7843 147.175 18.2985L148 18.4983C147.929 18.6008 144.204 20.8247 143.555 20.8247C143.413 20.8247 140.627 19.7829 139.475 19.0272V10.4501C139.475 10.0669 143.544 8.318 143.555 8.318ZM129.481 8.01033H129.536L131.316 9.74842V17.7156L132.408 18.725L130.344 20.6844L128.389 18.7789V10.8172L127.471 9.97513L129.481 8.01033ZM141.943 10.2234L144.559 12.8522L141.96 14.4877L141.943 10.2234ZM109.749 1.30087H109.979C109.793 1.75428 106.697 3.21169 105.495 4.55574C103.655 6.6177 102.42 7.76743 102.628 10.9845C102.748 12.8522 104.255 15.6212 106.014 16.6144C106.555 16.9167 108.264 17.8343 109.864 17.9045C111.743 17.9855 111.497 17.7048 111.513 17.6886C111.519 17.6832 111.535 17.694 111.601 17.7264V4.1563C111.601 3.98897 111.18 3.09834 110.782 3.09834C110.667 3.09834 110.498 3.30345 110.498 3.433V12.7982C110.498 13.149 110.164 13.651 108.542 14.7036C106.882 15.7832 106.369 16.1448 106.189 16.107C106.227 16.0045 106.478 15.6374 106.587 15.5457V5.78644C106.587 4.82563 108.029 4.25886 109.291 3.31964C111.36 1.77048 112.485 1.41422 112.507 1.41422H113.021C114.402 1.41422 115.265 3.03896 115.435 3.20629C115.445 3.21709 115.833 3.34663 115.953 3.48698H116.756C116.986 3.48698 117.559 3.15231 117.903 3.20629C116.975 3.99977 114.009 5.84581 113.944 5.84581H113.485C113.272 5.84581 112.944 5.52734 112.562 5.33842V17.5644C112.726 17.586 112.704 17.5644 112.791 17.5644C113.354 17.5644 115.445 16.0908 115.549 15.9397H115.724V16.3337L114.861 17.9045C113.07 19.9071 111.055 20.8949 108.193 20.9165C103.174 20.9488 99.6187 17.4025 99.2365 11.9021C98.8542 6.42878 102.803 1.92701 107.45 1.63553C108.127 1.59775 108.957 1.64633 109.061 1.63553C109.061 1.63553 109.695 1.33865 109.749 1.30087Z" fill="white"/>
</svg>
